<?xml version="1.0" encoding="utf-8"?>
<!-- Generator: Adobe Illustrator 17.0.0, SVG Export Plug-In . SVG Version: 6.00 Build 0)  -->
<!DOCTYPE svg PUBLIC "-//W3C//DTD SVG 1.1//EN" "http://www.w3.org/Graphics/SVG/1.1/DTD/svg11.dtd">
<svg version="1.1" id="Layer_1" xmlns="http://www.w3.org/2000/svg" xmlns:xlink="http://www.w3.org/1999/xlink" x="0px" y="0px"
	 height="12em" style="line-height: 1em;" viewBox="0 0 135.659 35.659"
	 xml:space="preserve">
<g>
	<path class="loom-logo" stroke="#101015" fill="#101015" stroke-miterlimit="10" d="M12.769,20.782c-0.528-1.584-1.056-3.168-1.536-5.04h-0.24
		c-0.336,1.536-0.96,3.312-1.488,4.896L4.752,34.08H0.336l8.401-21.506c0.192-0.528,0.288-0.864,0.288-1.104
		c0-0.288-0.096-0.72-0.336-1.296C7.201,6.093,5.473,2.877,2.64,2.877c-0.24,0-0.528,0-0.816,0.048l0.384-3.264
		C2.592-0.483,3.264-0.531,3.84-0.531c4.561,0,6.721,4.368,9.217,10.993l8.881,23.618h-4.464L12.769,20.782z"/>
	<path class="loom-logo" fill="#101015" d="M37.44,9.214c7.249,0,13.105,5.329,13.105,12.673c0,7.393-5.857,12.769-13.105,12.769s-13.057-5.376-13.057-12.769
		C24.383,14.542,30.192,9.214,37.44,9.214z M37.44,30.623c4.608,0,8.353-3.648,8.353-8.736c0-5.041-3.745-8.641-8.353-8.641
		c-4.56,0-8.305,3.601-8.305,8.641C29.136,26.975,32.88,30.623,37.44,30.623z"/>
	<path class="loom-logo" fill="#101015" d="M67.056,9.214c7.249,0,13.105,5.329,13.105,12.673c0,7.393-5.857,12.769-13.105,12.769s-13.057-5.376-13.057-12.769
		C53.999,14.542,59.807,9.214,67.056,9.214z M67.056,30.623c4.608,0,8.353-3.648,8.353-8.736c0-5.041-3.745-8.641-8.353-8.641
		c-4.56,0-8.305,3.601-8.305,8.641C58.751,26.975,62.496,30.623,67.056,30.623z"/>
	<path class="loom-logo" fill="#101015" d="M85.966,14.83c0-0.72-0.384-1.056-1.056-1.056h-1.968V9.79h4.464c2.112,0,3.072,0.912,3.072,2.688v0.912
		c0,0.768-0.048,1.392-0.048,1.392h0.096c1.152-2.832,4.513-5.568,8.305-5.568c4.128,0,6.48,1.872,7.297,5.521h0.096
		c1.344-2.928,4.705-5.521,8.641-5.521c5.472,0,8.017,3.12,8.017,9.313v10.513c0,0.72,0.384,1.056,1.056,1.056h1.968v3.984h-4.608
		c-2.161,0-3.072-0.912-3.072-3.072V19.534c0-3.408-0.672-6.096-4.272-6.096c-3.36,0-5.953,2.928-6.817,6.24
		c-0.24,1.008-0.384,2.064-0.384,3.312V34.08h-4.656V19.534c0-3.168-0.48-6.096-4.177-6.096c-3.552,0-6.048,2.976-6.96,6.432
		c-0.24,0.96-0.336,2.017-0.336,3.121V34.08h-4.656V14.83z"/>
</g>
<g>
	<path class="loom-logo-tm" fill="#888888" d="M122.421,0h5.33v0.2h-2.57v6.94h-0.2V0.2h-2.56V0z"/>
	<path class="loom-logo-tm" fill="#888888" d="M134.841,0v7.14h-0.2V0.25h-0.02l-3.03,6.89h-0.22l-3.03-6.89h-0.02v6.89h-0.2V0h0.33l3.02,6.88h0.02l3.02-6.88H134.841z"
		/>
</g>
</svg>
